<svg width="0"
	height="0"
	class="hidden">
	<symbol xmlns="http://www.w3.org/2000/svg"
		viewBox="0 0 60 60"
		id="tasks">
		<path fill-rule="evenodd"
			clip-rule="evenodd"
			d="M7.5 9.375a1.875 1.875 0 00-1.875 1.875V15A1.875 1.875 0 007.5 16.875h3.75A1.875 1.875 0 0013.125 15v-3.75a1.875 1.875 0 00-1.875-1.875H7.5zm3.75 1.875H7.5V15h3.75v-3.75z"></path>
		<path d="M18.75 13.125a1.875 1.875 0 011.875-1.875h33.75a1.875 1.875 0 110 3.75h-33.75a1.875 1.875 0 01-1.875-1.875zm1.875 13.125a1.875 1.875 0 100 3.75h33.75a1.875 1.875 0 100-3.75h-33.75zm0 15a1.875 1.875 0 100 3.75h33.75a1.875 1.875 0 100-3.75h-33.75z"></path>
		<path fill-rule="evenodd"
			clip-rule="evenodd"
			d="M5.625 26.25A1.875 1.875 0 017.5 24.375h3.75a1.875 1.875 0 011.875 1.875V30a1.875 1.875 0 01-1.875 1.875H7.5A1.875 1.875 0 015.625 30v-3.75zm1.875 0h3.75V30H7.5v-3.75zm0 13.125a1.875 1.875 0 00-1.875 1.875V45A1.875 1.875 0 007.5 46.875h3.75A1.875 1.875 0 0013.125 45v-3.75a1.875 1.875 0 00-1.875-1.875H7.5zm3.75 1.875H7.5V45h3.75v-3.75z"></path>
	</symbol>

	<symbol xmlns="http://www.w3.org/2000/svg"
		viewBox="0 0 512 512"
		id="checkbox">
		<path d="M452 512H60c-33.086 0-60-26.914-60-60V60C0 26.914 26.914 0 60 0h392c33.086 0 60 26.914 60 60v392c0 33.086-26.914 60-60 60zM60 40c-11.027 0-20 8.973-20 20v392c0 11.027 8.973 20 20 20h392c11.027 0 20-8.973 20-20V60c0-11.027-8.973-20-20-20zm370.898 111.344l-29.8-26.688-184.965 206.567L108.78 229.176l-27.558 28.988L218.44 388.61zm0 0"></path>
	</symbol>

	<symbol xmlns="http://www.w3.org/2000/svg"
		viewBox="0 0 512.001 512.001"
		id="close">
		<path d="M284.286 256.002L506.143 34.144c7.811-7.811 7.811-20.475 0-28.285-7.811-7.81-20.475-7.811-28.285 0L256 227.717 34.143 5.859c-7.811-7.811-20.475-7.811-28.285 0-7.81 7.811-7.811 20.475 0 28.285l221.857 221.857L5.858 477.859c-7.811 7.811-7.811 20.475 0 28.285a19.938 19.938 0 0014.143 5.857 19.94 19.94 0 0014.143-5.857L256 284.287l221.857 221.857c3.905 3.905 9.024 5.857 14.143 5.857s10.237-1.952 14.143-5.857c7.811-7.811 7.811-20.475 0-28.285L284.286 256.002z"></path>
	</symbol>

	<symbol xmlns="http://www.w3.org/2000/svg"
		viewBox="0 -1 401.523 401"
		id="edit">
		<path d="M370.59 250.973c-5.524 0-10 4.476-10 10v88.789c-.02 16.562-13.438 29.984-30 30H50c-16.563-.016-29.98-13.438-30-30V89.172c.02-16.559 13.438-29.98 30-30h88.79c5.523 0 10-4.477 10-10 0-5.52-4.477-10-10-10H50c-27.602.031-49.969 22.398-50 50v260.594c.031 27.601 22.398 49.968 50 50h280.59c27.601-.032 49.969-22.399 50-50v-88.793c0-5.524-4.477-10-10-10zm0 0"></path>
		<path d="M376.629 13.441c-17.574-17.574-46.067-17.574-63.64 0L134.581 191.848a9.997 9.997 0 00-2.566 4.402l-23.461 84.7a9.997 9.997 0 0012.304 12.308l84.7-23.465a9.997 9.997 0 004.402-2.566l178.402-178.41c17.547-17.587 17.547-46.055 0-63.641zM156.37 198.348L302.383 52.332l47.09 47.09-146.016 146.016zm-9.406 18.875l37.62 37.625-52.038 14.418zM374.223 74.676L363.617 85.28l-47.094-47.094 10.61-10.605c9.762-9.762 25.59-9.762 35.351 0l11.739 11.734c9.746 9.774 9.746 25.59 0 35.36zm0 0"></path>
	</symbol>

	<symbol xmlns="http://www.w3.org/2000/svg"
		viewBox="0 0 426.667 426.667"
		id="plus">
		<path d="M405.332 192H234.668V21.332C234.668 9.559 225.109 0 213.332 0 201.559 0 192 9.559 192 21.332V192H21.332C9.559 192 0 201.559 0 213.332c0 11.777 9.559 21.336 21.332 21.336H192v170.664c0 11.777 9.559 21.336 21.332 21.336 11.777 0 21.336-9.559 21.336-21.336V234.668h170.664c11.777 0 21.336-9.559 21.336-21.336 0-11.773-9.559-21.332-21.336-21.332zm0 0"></path>
	</symbol>

	<symbol xmlns="http://www.w3.org/2000/svg"
		viewBox="0 0 512 512"
		id="task">
		<path d="M303.457 472H106.569c-22.056 0-40-17.944-40-40V130c0-22.056 17.944-40 40-40h62.889v10c0 33.084 26.916 60 60 60s60-26.916 60-60V90h63c22.056 0 40 17.944 40 40v146c0 11.046 8.954 20 20 20s20-8.954 20-20V130c0-44.112-35.888-80-80-80h-63V20c0-11.046-8.954-20-20-20h-80c-11.046 0-20 8.954-20 20v30h-62.889c-44.112 0-80 35.888-80 80v302c0 44.112 35.888 80 80 80h196.889c11.046 0 20-8.954 20-20s-8.955-20-20.001-20zm-94-432h40v60c0 11.028-8.972 20-20 20s-20-8.972-20-20V40zM467.9 409.59L358.34 299.786a19.994 19.994 0 00-8.346-5.011l-78.725-23.912a20 20 0 00-25.087 24.475l22.362 80.725a20.007 20.007 0 005.119 8.79l109.366 109.573c11.697 11.696 27.063 17.545 42.427 17.545s30.729-5.849 42.427-17.545c23.395-23.394 23.395-61.458.017-84.836zm-173.46-89.885l39.128 11.886 73.924 74.089-28.289 28.289-73.513-73.652-11.25-40.612zm145.159 146.437c-7.797 7.799-20.485 7.799-28.271.014l-3.867-3.874 28.284-28.284 3.853 3.862c7.8 7.796 7.8 20.484.001 28.282z"></path>
	</symbol>
</svg>